<svg version="1.2" width="264.92mm" height="132.59mm" viewBox="0 0 26492 13259" preserveAspectRatio="xMidYMid" fill-rule="evenodd" stroke-width="28.222" stroke-linejoin="round" xmlns="http://www.w3.org/2000/svg" xmlns:ooo="http://xml.openoffice.org/svg/export" xmlns:xlink="http://www.w3.org/1999/xlink" xmlns:presentation="http://sun.com/xmlns/staroffice/presentation" xmlns:smil="http://www.w3.org/2001/SMIL20/" xmlns:anim="urn:oasis:names:tc:opendocument:xmlns:animation:1.0" xmlns:svg="urn:oasis:names:tc:opendocument:xmlns:svg-compatible:1.0" xml:space="preserve"><defs class="ClipPathGroup"><clipPath id="presentation_clip_path" clipPathUnits="userSpaceOnUse"><rect x="0" y="0" width="26492" height="13259"/></clipPath><clipPath id="presentation_clip_path_shrink" clipPathUnits="userSpaceOnUse"><rect x="26" y="13" width="26440" height="13233"/></clipPath></defs><defs class="TextShapeIndex"><g ooo:slide="id1" ooo:id-list="id3"/></defs><defs class="EmbeddedBulletChars"><g id="bullet-char-template-57356" transform="scale(0.00048828125,-0.00048828125)"><path d="M 580,1141 L 1163,571 580,0 -4,571 580,1141 Z"/></g><g id="bullet-char-template-57354" transform="scale(0.00048828125,-0.00048828125)"><path d="M 8,1128 L 1137,1128 1137,0 8,0 8,1128 Z"/></g><g id="bullet-char-template-10146" transform="scale(0.00048828125,-0.00048828125)"><path d="M 174,0 L 602,739 174,1481 1456,739 174,0 Z M 1358,739 L 309,1346 659,739 1358,739 Z"/></g><g id="bullet-char-template-10132" transform="scale(0.00048828125,-0.00048828125)"><path d="M 2015,739 L 1276,0 717,0 1260,543 174,543 174,936 1260,936 717,1481 1274,1481 2015,739 Z"/></g><g id="bullet-char-template-10007" transform="scale(0.00048828125,-0.00048828125)"><path d="M 0,-2 C -7,14 -16,27 -25,37 L 356,567 C 262,823 215,952 215,954 215,979 228,992 255,992 264,992 276,990 289,987 310,991 331,999 354,1012 L 381,999 492,748 772,1049 836,1024 860,1049 C 881,1039 901,1025 922,1006 886,937 835,863 770,784 769,783 710,716 594,584 L 774,223 C 774,196 753,168 711,139 L 727,119 C 717,90 699,76 672,76 641,76 570,178 457,381 L 164,-76 C 142,-110 111,-127 72,-127 30,-127 9,-110 8,-76 1,-67 -2,-52 -2,-32 -2,-23 -1,-13 0,-2 Z"/></g><g id="bullet-char-template-10004" transform="scale(0.00048828125,-0.00048828125)"><path d="M 285,-33 C 182,-33 111,30 74,156 52,228 41,333 41,471 41,549 55,616 82,672 116,743 169,778 240,778 293,778 328,747 346,684 L 369,508 C 377,444 397,411 428,410 L 1163,1116 C 1174,1127 1196,1133 1229,1133 1271,1133 1292,1118 1292,1087 L 1292,965 C 1292,929 1282,901 1262,881 L 442,47 C 390,-6 338,-33 285,-33 Z"/></g><g id="bullet-char-template-9679" transform="scale(0.00048828125,-0.00048828125)"><path d="M 813,0 C 632,0 489,54 383,161 276,268 223,411 223,592 223,773 276,916 383,1023 489,1130 632,1184 813,1184 992,1184 1136,1130 1245,1023 1353,916 1407,772 1407,592 1407,412 1353,268 1245,161 1136,54 992,0 813,0 Z"/></g><g id="bullet-char-template-8226" transform="scale(0.00048828125,-0.00048828125)"><path d="M 346,457 C 273,457 209,483 155,535 101,586 74,649 74,723 74,796 101,859 155,911 209,963 273,989 346,989 419,989 480,963 531,910 582,859 608,796 608,723 608,648 583,586 532,535 482,483 420,457 346,457 Z"/></g><g id="bullet-char-template-8211" transform="scale(0.00048828125,-0.00048828125)"><path d="M -4,459 L 1135,459 1135,606 -4,606 -4,459 Z"/></g><g id="bullet-char-template-61548" transform="scale(0.00048828125,-0.00048828125)"><path d="M 173,740 C 173,903 231,1043 346,1159 462,1274 601,1332 765,1332 928,1332 1067,1274 1183,1159 1299,1043 1357,903 1357,740 1357,577 1299,437 1183,322 1067,206 928,148 765,148 601,148 462,206 346,322 231,437 173,577 173,740 Z"/></g></defs><g><g id="id2" class="Master_Slide"><g id="bg-id2" class="Background"/><g id="bo-id2" class="BackgroundObjects"/></g></g><g class="SlideGroup"><g><g id="container-id1"><g id="id1" class="Slide" clip-path="url(#presentation_clip_path)"><g class="Page"><g class="Graphic"><g id="id3"><rect class="BoundingBox" stroke="none" fill="none" x="4" y="-6613" width="26485" height="26485"/><path fill="rgb(255,255,255)" stroke="none" d="M 13246,19858 L 17,19858 17,-6600 26475,-6600 26475,19858 13246,19858 Z"/><path fill="rgb(0,0,0)" stroke="none" d="M 13235,8820 L 4021,8820 4021,4416 22449,4416 22449,8820 13235,8820 Z"/><path fill="rgb(255,255,255)" stroke="none" d="M 6325,6590 L 6959,7720 6438,7720 6037,6931 5993,6931 5604,7720 5121,7720 5743,6590 5156,5516 5677,5516 6031,6239 6081,6239 6438,5516 6921,5516 6325,6590 6325,6590 Z M 8592,5911 L 8065,5911 8065,7720 7613,7720 7613,5911 7086,5911 7086,5516 8592,5516 8592,5911 8592,5911 Z M 10251,7720 L 8886,7720 8886,5516 10251,5516 10251,5911 9338,5911 9338,6410 10112,6410 10112,6801 9338,6801 9338,7326 10251,7326 10251,7720 10251,7720 Z M 11071,6887 L 11071,7720 10619,7720 10619,5516 11573,5516 C 11771,5516 11922,5578 12025,5702 12128,5826 12180,5993 12180,6201 L 12180,6201 C 12180,6363 12149,6500 12088,6612 12027,6723 11937,6801 11817,6846 L 11817,6846 12202,7720 11712,7720 11371,6887 11071,6887 11071,6887 Z M 11071,6511 L 11517,6511 C 11578,6511 11626,6495 11661,6465 11695,6434 11712,6381 11712,6305 L 11712,6305 11712,6116 C 11712,6040 11695,5987 11661,5956 11626,5926 11578,5911 11517,5911 L 11517,5911 11071,5911 11071,6511 11071,6511 Z M 14021,7720 L 14021,6571 14047,6201 13996,6201 13860,6552 13494,7351 13131,6552 12995,6201 12944,6201 12969,6571 12969,7720 12546,7720 12546,5516 13020,5516 13320,6173 13484,6643 13516,6643 13680,6173 13974,5516 14444,5516 14444,7720 14021,7720 14021,7720 Z M 15774,7720 L 14805,7720 14805,7364 15064,7364 15064,5873 14805,5873 14805,5516 15774,5516 15774,5873 15515,5873 15515,7364 15774,7364 15774,7720 15774,7720 Z M 17275,7720 L 16719,6539 16580,6189 16529,6189 16554,6558 16554,7720 16131,7720 16131,5516 16624,5516 17180,6697 17319,7048 17369,7048 17344,6678 17344,5516 17767,5516 17767,7720 17275,7720 17275,7720 Z M 19870,7720 L 19425,7720 19289,7180 18613,7180 18477,7720 18045,7720 18670,5516 19245,5516 19870,7720 19870,7720 Z M 19179,6817 L 19043,6309 18973,5926 18923,5926 18853,6309 18724,6817 19179,6817 19179,6817 Z M 21348,7720 L 20148,7720 20148,5516 20600,5516 20600,7326 21348,7326 21348,7720 21348,7720 Z"/></g></g></g></g></g></g></g></svg>