<svg xmlns="http://www.w3.org/2000/svg" version="1.1" xmlns:xlink="http://www.w3.org/1999/xlink" xmlns:svgjs="http://svgjs.dev/svgjs" width="1000" height="1000" viewBox="0 0 1000 1000"><rect width="1000" height="1000" fill="#ffffff"></rect><g transform="matrix(0.7,0,0,0.7,149.57575757575756,415.9384332941345)"><svg viewBox="0 0 396 95" data-background-color="#01ff70" preserveAspectRatio="xMidYMid meet" height="239" width="1000" xmlns="http://www.w3.org/2000/svg" xmlns:xlink="http://www.w3.org/1999/xlink"><g id="tight-bounds" transform="matrix(1,0,0,1,0.2400000000000091,0.23370494355782512)"><svg viewBox="0 0 395.52 94.53259011288438" height="94.53259011288438" width="395.52"><g><svg viewBox="0 0 395.52 94.53259011288438" height="94.53259011288438" width="395.52"><g><svg viewBox="0 0 395.52 94.53259011288438" height="94.53259011288438" width="395.52"><g id="textblocktransform"><svg viewBox="0 0 395.52 94.53259011288438" height="94.53259011288438" width="395.52" id="textblock"><g><svg viewBox="0 0 395.52 94.53259011288438" height="94.53259011288438" width="395.52"><rect width="395.52" height="94.53259011288438" x="0" y="0" opacity="1" fill="#000000" data-fill-palette-color="tertiary"></rect><g transform="matrix(1,0,0,1,23.607599999999998,23.607599999999994)"><svg width="348.3048" viewBox="0.75 -34.900001525878906 256.8800048828125 34.900001525878906" height="47.31739011288439" data-palette-color="#01ff70"><path d="M19.8-17.9L29.85 0 21.6 0 15.25-12.5 14.55-12.5 8.4 0 0.75 0 10.6-17.9 1.3-34.9 9.55-34.9 15.15-23.45 15.95-23.45 21.6-34.9 29.25-34.9 19.8-17.9ZM55.7-28.65L47.35-28.65 47.35 0 40.2 0 40.2-28.65 31.85-28.65 31.85-34.9 55.7-34.9 55.7-28.65ZM81.95 0L60.35 0 60.35-34.9 81.95-34.9 81.95-28.65 67.5-28.65 67.5-20.75 79.75-20.75 79.75-14.55 67.5-14.55 67.5-6.25 81.95-6.25 81.95 0ZM94.94-13.2L94.94 0 87.79 0 87.79-34.9 102.89-34.9Q107.59-34.9 110.04-31.95 112.49-29 112.49-24.05L112.49-24.05Q112.49-20.2 111.04-17.55 109.59-14.9 106.74-13.85L106.74-13.85 112.84 0 105.09 0 99.69-13.2 94.94-13.2ZM94.94-19.15L101.99-19.15Q103.44-19.15 104.27-19.88 105.09-20.6 105.09-22.4L105.09-22.4 105.09-25.4Q105.09-27.2 104.27-27.93 103.44-28.65 101.99-28.65L101.99-28.65 94.94-28.65 94.94-19.15ZM141.64 0L141.64-18.2 142.04-24.05 141.24-24.05 139.09-18.5 133.29-5.85 127.54-18.5 125.39-24.05 124.59-24.05 124.99-18.2 124.99 0 118.29 0 118.29-34.9 125.79-34.9 130.54-24.5 133.14-17.05 133.64-17.05 136.24-24.5 140.89-34.9 148.34-34.9 148.34 0 141.64 0ZM169.39 0L154.04 0 154.04-5.65 158.14-5.65 158.14-29.25 154.04-29.25 154.04-34.9 169.39-34.9 169.39-29.25 165.29-29.25 165.29-5.65 169.39-5.65 169.39 0ZM193.14 0L184.34-18.7 182.14-24.25 181.34-24.25 181.74-18.4 181.74 0 175.04 0 175.04-34.9 182.84-34.9 191.64-16.2 193.84-10.65 194.64-10.65 194.24-16.5 194.24-34.9 200.94-34.9 200.94 0 193.14 0ZM234.23 0L227.18 0 225.03-8.55 214.33-8.55 212.18 0 205.33 0 215.23-34.9 224.33-34.9 234.23 0ZM223.28-14.3L221.13-22.35 220.03-28.4 219.23-28.4 218.13-22.35 216.08-14.3 223.28-14.3ZM257.63 0L238.63 0 238.63-34.9 245.78-34.9 245.78-6.25 257.63-6.25 257.63 0Z" opacity="1" transform="matrix(1,0,0,1,0,0)" fill="#ffffff" class="wordmark-text-0" data-fill-palette-color="quaternary" id="text-0"></path></svg></g></svg></g></svg></g></svg></g></svg></g><defs></defs></svg><rect width="395.52" height="94.53259011288438" fill="none" stroke="none" visibility="hidden"></rect></g></svg></g></svg>
